<?xml version="1.0" standalone="no"?>
<!DOCTYPE svg PUBLIC "-//W3C//DTD SVG 20010904//EN"
 "http://www.w3.org/TR/2001/REC-SVG-20010904/DTD/svg10.dtd">
<svg version="1.0" xmlns="http://www.w3.org/2000/svg"
 width="1080.000000pt" height="1080.000000pt" viewBox="0 0 1080.000000 1080.000000"
 preserveAspectRatio="xMidYMid meet">

<g transform="translate(0.000000,1080.000000) scale(0.100000,-0.100000)"
fill="#000000" stroke="none">
<path d="M5495 8780 c-90 -14 -194 -41 -201 -52 -4 -6 4 -8 22 -4 146 29 533
51 682 37 160 -15 193 -13 117 6 -72 17 -527 27 -620 13z"/>
<path d="M5625 8731 c-6 -5 -82 -14 -171 -20 l-161 -10 -199 -69 c-427 -148
-622 -256 -798 -442 -36 -39 -70 -70 -75 -70 -13 0 -139 -140 -208 -232 -85
-112 -217 -362 -239 -452 -15 -60 17 -12 97 145 97 192 158 285 235 359 32 30
51 45 43 33 -8 -12 -46 -68 -85 -125 -64 -92 -134 -215 -134 -235 0 -4 17 17
37 45 50 73 60 47 13 -36 -21 -37 -48 -87 -61 -112 -13 -25 -34 -49 -46 -55
-28 -12 -93 -149 -127 -268 -54 -186 -61 -250 -61 -567 0 -282 -1 -290 -12
-190 -7 58 -17 124 -23 147 -5 23 -11 86 -11 140 -1 96 -2 97 -11 43 -21 -121
11 -476 57 -635 8 -27 13 -36 10 -20 -9 56 -18 220 -11 214 4 -3 13 -49 21
-100 16 -106 61 -259 76 -259 6 0 8 8 5 18 -17 58 -66 307 -71 357 -3 34 10
-13 29 -105 56 -266 138 -507 187 -553 23 -22 51 -75 55 -104 2 -24 50 -109
67 -120 6 -3 1 10 -12 30 -12 20 -20 37 -18 37 3 0 20 -23 38 -51 18 -28 70
-100 116 -161 45 -60 77 -106 70 -102 -22 14 92 -113 154 -170 88 -82 89 -68
0 20 -75 76 -68 71 77 -46 234 -191 479 -318 752 -391 47 -12 87 -24 90 -26 2
-2 7 -113 11 -246 4 -133 17 -357 29 -497 12 -140 24 -320 27 -400 l5 -145
-193 -2 c-385 -3 -911 -29 -1011 -49 -24 -5 -28 -10 -27 -37 0 -18 3 -26 6
-19 3 8 30 12 86 12 92 0 96 -7 11 -19 -144 -21 734 -10 1064 14 l74 5 -4
-615 c-2 -338 0 -603 4 -588 17 72 64 706 74 1007 l7 199 301 -5 c310 -5 300
-3 -54 11 l-205 8 220 0 c121 1 301 -5 400 -12 178 -12 179 -12 80 -15 -112
-4 -124 -3 315 -21 162 -6 321 -15 353 -18 31 -4 57 -4 57 1 0 4 -1 8 -3 8 -2
0 -53 7 -113 15 -293 42 -906 98 -1191 111 l-163 7 0 191 c0 183 -8 326 -46
834 -9 128 -15 235 -11 238 3 3 48 0 100 -6 61 -8 175 -10 318 -7 191 4 242 8
344 30 158 35 253 64 407 126 69 28 129 51 133 51 14 0 233 148 310 209 108
86 245 211 245 223 0 5 -14 0 -30 -12 -88 -63 -364 -168 -523 -200 -95 -19
-75 -5 33 23 204 54 552 215 598 277 l26 35 -29 -27 c-17 -15 -66 -43 -110
-63 -44 -20 -101 -45 -127 -57 -27 -12 -48 -25 -48 -29 0 -11 -130 -63 -245
-97 -296 -90 -569 -94 -917 -12 -142 33 -185 48 -288 100 -67 34 -124 60 -126
58 -2 -2 33 -23 76 -48 44 -24 78 -45 76 -47 -8 -8 -145 56 -225 106 -182 113
-335 252 -424 386 -76 115 -140 249 -167 350 -12 44 -36 121 -52 170 -93 281
-112 400 -105 659 7 274 50 449 167 691 118 244 262 425 460 579 314 245 661
366 1050 366 232 0 345 -18 562 -91 65 -21 121 -38 126 -37 14 5 92 -35 86
-43 -3 -5 -1 -9 3 -9 5 0 49 -25 97 -55 l89 -56 -52 60 c-38 44 -101 93 -241
185 -329 220 -598 329 -919 371 -119 16 -462 20 -476 6z m812 -267 c-3 -3 -12
-4 -19 -1 -8 3 -5 6 6 6 11 1 17 -2 13 -5z m363 -60 c14 -14 12 -15 -15 -8
-16 4 -48 13 -70 19 l-40 13 55 -4 c32 -2 61 -11 70 -20z m-141 0 c10 -9 -35
-3 -49 6 -11 8 -7 9 15 4 17 -4 32 -8 34 -10z m312 -90 c33 -15 58 -29 56 -31
-2 -2 -35 10 -73 26 -38 17 -63 30 -55 31 7 0 40 -12 72 -26z m-1554 -4996
c-2 -13 -4 -5 -4 17 -1 22 1 32 4 23 2 -10 2 -28 0 -40z m4 -489 l-8 -254 0
320 c0 220 2 299 8 254 5 -36 5 -180 0 -320z"/>
<path d="M5005 8641 c-60 -21 -118 -42 -127 -46 -20 -8 -15 -27 5 -20 53 17
217 80 237 91 47 25 -4 14 -115 -25z"/>
<path d="M7301 8153 c24 -27 57 -58 74 -71 16 -12 50 -44 73 -70 39 -42 41
-43 14 -7 -33 44 -185 195 -197 195 -4 0 12 -21 36 -47z"/>
<path d="M3701 6064 c-2 -24 70 -249 100 -315 33 -71 63 -99 33 -31 -14 32
-93 243 -122 327 -6 17 -11 25 -11 19z"/>
<path d="M3880 5662 c0 -21 55 -136 115 -237 54 -92 73 -116 60 -75 -10 32
-175 326 -175 312z"/>
<path d="M4552 4858 c12 -18 118 -75 118 -63 0 6 -117 85 -126 85 -3 0 0 -10
8 -22z"/>
<path d="M4705 4807 c50 -35 75 -49 75 -44 0 9 -72 57 -85 57 -5 0 -1 -6 10
-13z"/>
<path d="M4960 4625 c25 -13 52 -24 60 -24 8 0 -9 11 -39 25 -68 31 -79 30
-21 -1z"/>
</g>
</svg>
